<svg width="48" height="36" viewBox="0 0 48 36" fill="none" xmlns="http://www.w3.org/2000/svg">
<path d="M25.688 35.5635V25.4385H32.438L24.0005 15.3135L15.563 25.4385H22.313V35.5635H13.8755V35.4791C13.592 35.496 13.322 35.5635 13.0317 35.5635C9.67509 35.5635 6.45593 34.2301 4.08242 31.8565C1.70891 29.483 0.375488 26.2639 0.375488 22.9072C0.375488 16.4137 5.28611 11.1217 11.5872 10.3961C12.1397 7.5081 13.6813 4.90287 15.9468 3.0285C18.2123 1.15413 21.0601 0.127779 24.0005 0.125977C26.9413 0.127602 29.7896 1.15382 32.0557 3.02815C34.3218 4.90248 35.864 7.5078 36.4171 10.3961C42.7182 11.1217 47.6221 16.4137 47.6221 22.9072C47.6221 26.2639 46.2887 29.483 43.9152 31.8565C41.5417 34.2301 38.3225 35.5635 34.9659 35.5635C34.6824 35.5635 34.409 35.496 34.1221 35.4791V35.5635H25.688Z" fill="#26B893"/>
</svg>
