<svg width="20" height="17" viewBox="0 0 20 17" fill="none" xmlns="http://www.w3.org/2000/svg">
<path d="M0.833496 11.0832C0.833496 9.14284 1.85374 7.44075 3.38705 6.48417C3.80407 3.20317 6.60588 0.666504 10.0002 0.666504C13.3944 0.666504 16.1962 3.20317 16.6132 6.48417C18.1466 7.44075 19.1668 9.14284 19.1668 11.0832C19.1668 13.9345 16.9637 16.2713 14.1668 16.4841L5.8335 16.4998C3.03665 16.2713 0.833496 13.9345 0.833496 11.0832ZM14.0404 14.8222C15.9849 14.6743 17.5002 13.0466 17.5002 11.0832C17.5002 9.77234 16.8238 8.58 15.7311 7.89825L15.0597 7.47934L14.9599 6.69432C14.6447 4.21486 12.5242 2.33317 10.0002 2.33317C7.47613 2.33317 5.35555 4.21486 5.04041 6.69432L4.94063 7.47934L4.26923 7.89825C3.17646 8.58 2.50016 9.77234 2.50016 11.0832C2.50016 13.0466 4.01544 14.6743 5.95991 14.8222L6.10433 14.8332H13.896L14.0404 14.8222ZM10.8335 8.99984H13.3335L10.0002 13.1665L6.66683 8.99984H9.16683V5.6665H10.8335V8.99984Z" fill="white"/>
</svg>
