<svg width="26" height="26" viewBox="0 0 26 26" fill="none" xmlns="http://www.w3.org/2000/svg">
<g clip-path="url(#clip0_27_19)">
<path d="M25.404 13.2373C25.404 6.25369 19.7425 0.592285 12.759 0.592285C5.77536 0.592285 0.113953 6.25369 0.113953 13.2373C0.113953 19.5487 4.73807 24.7801 10.7832 25.7287V16.8925H7.57253V13.2373H10.7832V10.4514C10.7832 7.28228 12.671 5.53174 15.5594 5.53174C16.9429 5.53174 18.3899 5.77871 18.3899 5.77871V8.89057H16.7955C15.2246 8.89057 14.7347 9.86532 14.7347 10.8654V13.2373H18.2417L17.6811 16.8925H14.7347V25.7287C20.7798 24.7801 25.404 19.5488 25.404 13.2373Z" fill="#1877F2"/>
<path d="M17.6811 16.8925L18.2418 13.2373H14.7347V10.8654C14.7347 9.86522 15.2246 8.89057 16.7955 8.89057H18.3899V5.77871C18.3899 5.77871 16.9429 5.53174 15.5593 5.53174C12.671 5.53174 10.7832 7.28228 10.7832 10.4514V13.2373H7.57254V16.8925H10.7832V25.7287C11.4368 25.8311 12.0974 25.8824 12.759 25.8823C13.4205 25.8824 14.0811 25.8311 14.7347 25.7287V16.8925H17.6811Z" fill="white"/>
</g>
<defs>
<clipPath id="clip0_27_19">
<rect width="25.29" height="25.29" fill="white" transform="translate(0.113953 0.592285)"/>
</clipPath>
</defs>
</svg>
