<svg width="86" height="86" viewBox="0 0 86 86" fill="none" xmlns="http://www.w3.org/2000/svg">
<rect width="85.557" height="85.557" rx="42.7785" fill="#F0F6FF"/>
<path fill-rule="evenodd" clip-rule="evenodd" d="M42.655 27.0081C43.0331 27.0081 43.3956 27.1582 43.6629 27.4255C43.9303 27.6929 44.0804 28.0554 44.0804 28.4335V33.0099H46.304C46.4922 33.0096 46.6763 33.0651 46.8329 33.1695C46.9895 33.2739 47.1115 33.4225 47.1836 33.5963C47.2556 33.7702 47.2745 33.9615 47.2377 34.146C47.2009 34.3306 47.1101 34.5001 46.9768 34.633L43.3278 38.282C43.2395 38.3705 43.1347 38.4407 43.0192 38.4886C42.9038 38.5365 42.78 38.5612 42.655 38.5612C42.53 38.5612 42.4063 38.5365 42.2908 38.4886C42.1754 38.4407 42.0705 38.3705 41.9822 38.282L38.3332 34.633C38.2001 34.5002 38.1094 34.3309 38.0725 34.1465C38.0356 33.9621 38.0543 33.771 38.1261 33.5972C38.1979 33.4234 38.3197 33.2749 38.476 33.1703C38.6323 33.0658 38.8161 33.01 39.0041 33.0099H41.2296V28.4335C41.2296 28.0554 41.3798 27.6929 41.6471 27.4255C41.9144 27.1582 42.277 27.0081 42.655 27.0081ZM33.3158 34.8572H35.8017C35.9538 35.3951 36.2388 35.8987 36.6532 36.3131L40.3022 39.9621C40.611 40.2709 40.9777 40.516 41.3812 40.6831C41.7848 40.8503 42.2173 40.9363 42.6541 40.9363C43.0909 40.9363 43.5234 40.8503 43.9269 40.6831C44.3305 40.516 44.6971 40.2709 45.006 39.9621L48.6569 36.3131C49.0712 35.8987 49.3582 35.3951 49.5083 34.8553H51.9942C53.7142 34.8553 55.1092 36.2503 55.1092 37.9684V38.2459L42.655 45.5021L30.2028 38.2459V37.9684C30.2028 36.2503 31.5958 34.8572 33.3158 34.8572ZM30.2028 40.9941V50.4207C30.2028 52.1407 31.5958 53.5338 33.3158 53.5338H51.9942C53.7142 53.5338 55.1092 52.1407 55.1092 50.4207V40.9941L43.2537 47.9025C43.0717 48.0076 42.8652 48.0629 42.655 48.0629C42.4449 48.0629 42.2384 48.0076 42.0564 47.9025L30.2028 40.9941Z" fill="#6CCF63"/>
</svg>
