<svg width="152" height="157" viewBox="0 0 152 157" fill="none" xmlns="http://www.w3.org/2000/svg">
<g filter="url(#filter0_d_488_8342)">
<path d="M52.1598 27.7591C56.9127 27.7631 61.5391 26.2277 65.3465 23.3827L71.841 18.53C74.2666 16.8311 77.4962 16.8311 79.9218 18.53L86.8347 23.5433C90.567 26.25 95.0552 27.7157 99.6655 27.7335L105.161 27.7547C110.606 27.7547 115.021 32.1688 115.021 37.614C115.021 42.5809 117.219 47.2932 121.024 50.4853L121.26 50.6834C121.739 51.0848 122.015 51.6774 122.015 52.302V108.082C122.015 111.972 118.862 115.125 114.973 115.125H37.0267C33.1376 115.125 29.9844 111.972 29.9844 108.082L29.9878 52.3019C29.9878 51.6773 30.2643 51.0848 30.7423 50.6834L30.9738 50.4892C34.7802 47.2961 36.9786 42.5823 36.9786 37.614C36.9786 32.1688 41.3924 27.7547 46.8379 27.7547L52.1598 27.7591Z" fill="#FF0000" fill-opacity="0.01"/>
</g>
<mask id="mask0_488_8342" style="mask-type:alpha" maskUnits="userSpaceOnUse" x="29" y="14" width="94" height="102">
<path d="M58.0746 27.7547L71.9592 16.1072C74.3848 14.4083 77.6144 14.4083 80.04 16.1072L93.9256 27.7547H105.161C110.606 27.7547 115.021 32.1689 115.021 37.614V45.4497L121.26 50.6834C121.739 51.0848 122.015 51.6774 122.015 52.302V108.082C122.015 111.972 118.862 115.125 114.973 115.125H37.0267C33.1376 115.125 29.9844 111.972 29.9844 108.082L29.9878 52.3019C29.9878 51.6774 30.2643 51.0849 30.7423 50.6835L36.9786 45.4519V37.614C36.9786 32.1689 41.3924 27.7547 46.8379 27.7547H58.0746Z" fill="#EBE9FF"/>
</mask>
<g mask="url(#mask0_488_8342)">
<path d="M69.71 19.066L33.1116 48.7801C31.1353 50.3846 29.9876 52.7946 29.9874 55.3403L29.9844 108.082C29.9844 111.971 33.1373 115.124 37.0267 115.124H114.973C118.862 115.124 122.015 111.971 122.015 108.082V55.3504C122.015 52.799 120.862 50.3841 118.878 48.7796L82.1244 19.0542C78.5029 16.1254 73.3259 16.1303 69.71 19.066Z" fill="#26B893" fill-opacity="0.72"/>
<path d="M105.16 27.7549C110.605 27.7549 115.02 32.169 115.02 37.6142L115.02 113.716C115.02 114.494 114.389 115.125 113.611 115.125L38.3859 115.125C37.608 115.125 36.9774 114.494 36.9774 113.716L36.9774 37.6141C36.9774 32.169 41.3916 27.7549 46.8367 27.7549L105.16 27.7549Z" fill="#F9F9FF"/>
<rect x="47.6074" y="61.665" width="44.4953" height="6.42546" rx="3.21273" fill="#26B893" fill-opacity="0.61"/>
<rect x="47.6074" y="39.8086" width="44.0601" height="6.42546" rx="3.21273" fill="#26B893" fill-opacity="0.61"/>
<rect x="47.6074" y="50.7373" width="33.4123" height="6.42546" rx="3.21273" fill="#26B893" fill-opacity="0.61"/>
<path d="M65.4265 83.0137L29.5625 54.0713L29.8115 112.24L65.4265 83.0137Z" fill="#26B893" fill-opacity="0.28"/>
<path d="M86.7546 83.5234L123.086 54.4893L122.582 109.813L86.7546 83.5234Z" fill="#26B893" fill-opacity="0.28"/>
<path d="M14.7665 113.364L68.0559 76.0385C72.907 72.6407 79.3654 72.6407 84.2165 76.0385L148.48 121.05C149.607 121.84 149.049 123.612 147.672 123.612L17.9986 123.612C12.4911 123.612 10.2555 116.523 14.7665 113.364Z" fill="#26B893"/>
</g>
<defs>
<filter id="filter0_d_488_8342" x="0.905666" y="0.150736" width="150.189" height="156.026" filterUnits="userSpaceOnUse" color-interpolation-filters="sRGB">
<feFlood flood-opacity="0" result="BackgroundImageFix"/>
<feColorMatrix in="SourceAlpha" type="matrix" values="0 0 0 0 0 0 0 0 0 0 0 0 0 0 0 0 0 0 127 0" result="hardAlpha"/>
<feOffset dy="11.9736"/>
<feGaussianBlur stdDeviation="14.5394"/>
<feColorMatrix type="matrix" values="0 0 0 0 0.290196 0 0 0 0 0.227451 0 0 0 0 1 0 0 0 0.15 0"/>
<feBlend mode="normal" in2="BackgroundImageFix" result="effect1_dropShadow_488_8342"/>
<feBlend mode="normal" in="SourceGraphic" in2="effect1_dropShadow_488_8342" result="shape"/>
</filter>
</defs>
</svg>
