<svg width="22" height="26" viewBox="0 0 22 26" fill="none" xmlns="http://www.w3.org/2000/svg">
<path d="M13.3327 1.33325H7.26602C5.30583 1.33325 4.32574 1.33325 3.57705 1.71473C2.91848 2.05029 2.38305 2.58572 2.04749 3.24429C1.66602 3.99298 1.66602 4.97307 1.66602 6.93325V19.0666C1.66602 21.0268 1.66602 22.0069 2.04749 22.7556C2.38305 23.4141 2.91848 23.9496 3.57705 24.2851C4.32574 24.6666 5.30583 24.6666 7.26602 24.6666H14.7327C16.6929 24.6666 17.673 24.6666 18.4217 24.2851C19.0802 23.9496 19.6156 23.4141 19.9512 22.7556C20.3327 22.0069 20.3327 21.0268 20.3327 19.0666V8.33325M13.3327 1.33325L20.3327 8.33325M13.3327 1.33325V8.33325H20.3327M13.041 15.3333V13.2916C13.041 12.164 12.1269 11.2499 10.9993 11.2499C9.87177 11.2499 8.95768 12.164 8.95768 13.2916V15.3333M8.78268 19.9999H13.216C13.8694 19.9999 14.1961 19.9999 14.4457 19.8728C14.6652 19.7609 14.8437 19.5824 14.9555 19.3629C15.0827 19.1133 15.0827 18.7866 15.0827 18.1333V17.1999C15.0827 16.5465 15.0827 16.2198 14.9555 15.9703C14.8437 15.7507 14.6652 15.5723 14.4457 15.4604C14.1961 15.3333 13.8694 15.3333 13.216 15.3333H8.78268C8.12929 15.3333 7.80259 15.3333 7.55303 15.4604C7.3335 15.5723 7.15503 15.7507 7.04318 15.9703C6.91602 16.2198 6.91602 16.5465 6.91602 17.1999V18.1333C6.91602 18.7866 6.91602 19.1133 7.04318 19.3629C7.15503 19.5824 7.3335 19.7609 7.55303 19.8728C7.80259 19.9999 8.12929 19.9999 8.78268 19.9999Z" stroke="#B42318" stroke-width="2" stroke-linecap="round" stroke-linejoin="round"/>
</svg>
