<svg width="26" height="20" viewBox="0 0 26 20" fill="none" xmlns="http://www.w3.org/2000/svg">
<path d="M24.6673 6.41985C24.6673 5.71307 24.6673 5.35967 24.5276 5.19603C24.4063 5.05404 24.2244 4.97869 24.0382 4.99334C23.8237 5.01023 23.5738 5.26011 23.074 5.75989L18.834 9.99992L23.074 14.24C23.5738 14.7397 23.8237 14.9896 24.0382 15.0065C24.2244 15.0211 24.4063 14.9458 24.5276 14.8038C24.6673 14.6402 24.6673 14.2868 24.6673 13.58V6.41985Z" stroke="#B54708" stroke-width="2" stroke-linecap="round" stroke-linejoin="round"/>
<path d="M1.33398 7.43325C1.33398 5.47307 1.33398 4.49298 1.71546 3.74429C2.05102 3.08572 2.58645 2.55029 3.24502 2.21473C3.99371 1.83325 4.9738 1.83325 6.93398 1.83325H13.234C15.1942 1.83325 16.1743 1.83325 16.923 2.21473C17.5815 2.55029 18.117 3.08572 18.4525 3.74429C18.834 4.49298 18.834 5.47307 18.834 7.43325V12.5666C18.834 14.5268 18.834 15.5069 18.4525 16.2556C18.117 16.9141 17.5815 17.4496 16.923 17.7851C16.1743 18.1666 15.1942 18.1666 13.234 18.1666H6.93398C4.9738 18.1666 3.99371 18.1666 3.24502 17.7851C2.58645 17.4496 2.05102 16.9141 1.71546 16.2556C1.33398 15.5069 1.33398 14.5268 1.33398 12.5666V7.43325Z" stroke="#B54708" stroke-width="2" stroke-linecap="round" stroke-linejoin="round"/>
</svg>
