<svg width="26" height="26" viewBox="0 0 26 26" fill="none" xmlns="http://www.w3.org/2000/svg">
<path d="M5.203 21.6781C5.91271 20.006 7.56973 18.8333 9.50065 18.8333H16.5007C18.4316 18.8333 20.0886 20.006 20.7983 21.6781M17.6673 10.0833C17.6673 12.6606 15.578 14.7499 13.0007 14.7499C10.4233 14.7499 8.33398 12.6606 8.33398 10.0833C8.33398 7.50592 10.4233 5.41659 13.0007 5.41659C15.578 5.41659 17.6673 7.50592 17.6673 10.0833ZM24.6673 12.9999C24.6673 19.4432 19.444 24.6666 13.0007 24.6666C6.55733 24.6666 1.33398 19.4432 1.33398 12.9999C1.33398 6.5566 6.55733 1.33325 13.0007 1.33325C19.444 1.33325 24.6673 6.5566 24.6673 12.9999Z" stroke="#067647" stroke-width="2" stroke-linecap="round" stroke-linejoin="round"/>
</svg>
