<svg width="31" height="36" viewBox="0 0 31 36" fill="none" xmlns="http://www.w3.org/2000/svg">
<g clip-path="url(#clip0_477_10940)">
<path fill-rule="evenodd" clip-rule="evenodd" d="M0 0.855C0 0.382797 0.37672 0 0.841429 0H17.7143L31 13.5V35.145C31 35.6172 30.6233 36 30.1586 36H0.841429C0.376721 36 0 35.6172 0 35.145V0.855Z" fill="#F85640"/>
<path d="M10.6299 26.162C10.6299 26.498 10.5502 26.813 10.3907 27.107C10.2372 27.401 9.99217 27.638 9.6556 27.818C9.32487 27.998 8.90567 28.088 8.39787 28.088H7.36158V30.5H6.12158V24.218H8.39787C8.87617 24.218 9.2836 24.302 9.62017 24.47C9.95674 24.638 10.2077 24.869 10.373 25.163C10.5442 25.457 10.6299 25.79 10.6299 26.162ZM8.34473 27.071C8.6872 27.071 8.94109 26.993 9.10646 26.837C9.27173 26.675 9.35446 26.45 9.35446 26.162C9.35446 25.55 9.01789 25.244 8.34473 25.244H7.36158V27.071H8.34473ZM14.1143 24.218C14.7638 24.218 15.3336 24.347 15.8237 24.605C16.3197 24.863 16.7006 25.232 16.9663 25.712C17.2378 26.186 17.3737 26.738 17.3737 27.368C17.3737 27.998 17.2378 28.55 16.9663 29.024C16.7006 29.492 16.3197 29.855 15.8237 30.113C15.3336 30.371 14.7638 30.5 14.1143 30.5H11.9531V24.218H14.1143ZM14.07 29.429C14.7195 29.429 15.2214 29.249 15.5757 28.889C15.93 28.529 16.1071 28.022 16.1071 27.368C16.1071 26.714 15.93 26.204 15.5757 25.838C15.2214 25.466 14.7195 25.28 14.07 25.28H13.1931V29.429H14.07ZM22.5621 24.218V25.235H19.9847V26.846H21.9599V27.845H19.9847V30.5H18.7447V24.218H22.5621Z" fill="white"/>
<path fill-rule="evenodd" clip-rule="evenodd" d="M17.7144 0L31.0001 13.5H18.5558C18.0911 13.5 17.7144 13.1172 17.7144 12.645V0Z" fill="#D13F2B"/>
</g>
<defs>
<clipPath id="clip0_477_10940">
<rect width="31" height="36" rx="5" fill="white"/>
</clipPath>
</defs>
</svg>
