<svg width="130" height="132" viewBox="0 0 130 132" fill="none" xmlns="http://www.w3.org/2000/svg">
<rect x="0.5" y="0.5" width="129" height="131" rx="4.5" fill="#EDF2F7" stroke="#4C535F" stroke-dasharray="5 5"/>
<path d="M35.5449 89.18C34.8769 89.18 34.2869 89.042 33.7749 88.766C33.2629 88.49 32.8609 88.104 32.5689 87.608C32.2809 87.108 32.1369 86.522 32.1369 85.85V80.366L33.2169 80.36V85.76C33.2169 86.168 33.2849 86.524 33.4209 86.828C33.5609 87.128 33.7449 87.378 33.9729 87.578C34.2009 87.778 34.4509 87.928 34.7229 88.028C34.9989 88.124 35.2729 88.172 35.5449 88.172C35.8209 88.172 36.0969 88.122 36.3729 88.022C36.6489 87.922 36.8989 87.774 37.1229 87.578C37.3509 87.378 37.5329 87.126 37.6689 86.822C37.8049 86.518 37.8729 86.164 37.8729 85.76V80.36H38.9529V85.85C38.9529 86.518 38.8069 87.102 38.5149 87.602C38.2269 88.102 37.8269 88.49 37.3149 88.766C36.8029 89.042 36.2129 89.18 35.5449 89.18ZM43.609 89.18C43.001 89.18 42.489 89.03 42.073 88.73C41.657 88.426 41.341 88.016 41.125 87.5C40.913 86.98 40.807 86.398 40.807 85.754C40.807 85.102 40.913 84.518 41.125 84.002C41.341 83.486 41.657 83.08 42.073 82.784C42.493 82.488 43.007 82.34 43.615 82.34C44.215 82.34 44.731 82.49 45.163 82.79C45.599 83.086 45.933 83.492 46.165 84.008C46.397 84.524 46.513 85.106 46.513 85.754C46.513 86.402 46.397 86.984 46.165 87.5C45.933 88.016 45.599 88.426 45.163 88.73C44.731 89.03 44.213 89.18 43.609 89.18ZM40.627 91.88V82.52H41.581V87.29H41.701V91.88H40.627ZM43.477 88.202C43.905 88.202 44.259 88.094 44.539 87.878C44.819 87.662 45.029 87.37 45.169 87.002C45.309 86.63 45.379 86.214 45.379 85.754C45.379 85.298 45.309 84.886 45.169 84.518C45.033 84.15 44.821 83.858 44.533 83.642C44.249 83.426 43.887 83.318 43.447 83.318C43.027 83.318 42.679 83.422 42.403 83.63C42.127 83.834 41.921 84.12 41.785 84.488C41.649 84.852 41.581 85.274 41.581 85.754C41.581 86.226 41.647 86.648 41.779 87.02C41.915 87.388 42.123 87.678 42.403 87.89C42.683 88.098 43.041 88.202 43.477 88.202ZM47.9483 89V80.18H49.0163V89H47.9483ZM53.5766 89.18C52.9326 89.18 52.3766 89.034 51.9086 88.742C51.4446 88.45 51.0866 88.046 50.8346 87.53C50.5826 87.014 50.4566 86.422 50.4566 85.754C50.4566 85.074 50.5846 84.478 50.8406 83.966C51.0966 83.454 51.4586 83.056 51.9266 82.772C52.3946 82.484 52.9446 82.34 53.5766 82.34C54.2246 82.34 54.7826 82.486 55.2506 82.778C55.7186 83.066 56.0766 83.468 56.3246 83.984C56.5766 84.496 56.7026 85.086 56.7026 85.754C56.7026 86.43 56.5766 87.026 56.3246 87.542C56.0726 88.054 55.7126 88.456 55.2446 88.748C54.7766 89.036 54.2206 89.18 53.5766 89.18ZM53.5766 88.166C54.2486 88.166 54.7486 87.942 55.0766 87.494C55.4046 87.046 55.5686 86.466 55.5686 85.754C55.5686 85.022 55.4026 84.44 55.0706 84.008C54.7386 83.572 54.2406 83.354 53.5766 83.354C53.1246 83.354 52.7526 83.456 52.4606 83.66C52.1686 83.864 51.9506 84.146 51.8066 84.506C51.6626 84.866 51.5906 85.282 51.5906 85.754C51.5906 86.482 51.7586 87.066 52.0946 87.506C52.4306 87.946 52.9246 88.166 53.5766 88.166ZM59.8656 89.18C59.3816 89.18 58.9756 89.092 58.6476 88.916C58.3236 88.736 58.0776 88.5 57.9096 88.208C57.7456 87.916 57.6636 87.596 57.6636 87.248C57.6636 86.908 57.7276 86.614 57.8556 86.366C57.9876 86.114 58.1716 85.906 58.4076 85.742C58.6436 85.574 58.9256 85.442 59.2536 85.346C59.5616 85.262 59.9056 85.19 60.2856 85.13C60.6696 85.066 61.0576 85.008 61.4496 84.956C61.8416 84.904 62.2076 84.854 62.5476 84.806L62.1636 85.028C62.1756 84.452 62.0596 84.026 61.8156 83.75C61.5756 83.474 61.1596 83.336 60.5676 83.336C60.1756 83.336 59.8316 83.426 59.5356 83.606C59.2436 83.782 59.0376 84.07 58.9176 84.47L57.9036 84.164C58.0596 83.596 58.3616 83.15 58.8096 82.826C59.2576 82.502 59.8476 82.34 60.5796 82.34C61.1676 82.34 61.6716 82.446 62.0916 82.658C62.5156 82.866 62.8196 83.182 63.0036 83.606C63.0956 83.806 63.1536 84.024 63.1776 84.26C63.2016 84.492 63.2136 84.736 63.2136 84.992V89H62.2656V87.446L62.4876 87.59C62.2436 88.114 61.9016 88.51 61.4616 88.778C61.0256 89.046 60.4936 89.18 59.8656 89.18ZM60.0276 88.286C60.4116 88.286 60.7436 88.218 61.0236 88.082C61.3076 87.942 61.5356 87.76 61.7076 87.536C61.8796 87.308 61.9916 87.06 62.0436 86.792C62.1036 86.592 62.1356 86.37 62.1396 86.126C62.1476 85.878 62.1516 85.688 62.1516 85.556L62.5236 85.718C62.1756 85.766 61.8336 85.812 61.4976 85.856C61.1616 85.9 60.8436 85.948 60.5436 86C60.2436 86.048 59.9736 86.106 59.7336 86.174C59.5576 86.23 59.3916 86.302 59.2356 86.39C59.0836 86.478 58.9596 86.592 58.8636 86.732C58.7716 86.868 58.7256 87.038 58.7256 87.242C58.7256 87.418 58.7696 87.586 58.8576 87.746C58.9496 87.906 59.0896 88.036 59.2776 88.136C59.4696 88.236 59.7196 88.286 60.0276 88.286ZM67.3176 89.18C66.7136 89.18 66.1956 89.03 65.7636 88.73C65.3316 88.426 64.9976 88.016 64.7616 87.5C64.5296 86.984 64.4136 86.402 64.4136 85.754C64.4136 85.106 64.5296 84.524 64.7616 84.008C64.9976 83.492 65.3316 83.086 65.7636 82.79C66.1956 82.49 66.7116 82.34 67.3116 82.34C67.9236 82.34 68.4376 82.488 68.8536 82.784C69.2696 83.08 69.5836 83.486 69.7956 84.002C70.0116 84.518 70.1196 85.102 70.1196 85.754C70.1196 86.398 70.0116 86.98 69.7956 87.5C69.5836 88.016 69.2696 88.426 68.8536 88.73C68.4376 89.03 67.9256 89.18 67.3176 89.18ZM67.4496 88.202C67.8856 88.202 68.2436 88.098 68.5236 87.89C68.8036 87.678 69.0096 87.388 69.1416 87.02C69.2776 86.648 69.3456 86.226 69.3456 85.754C69.3456 85.274 69.2776 84.852 69.1416 84.488C69.0096 84.12 68.8056 83.834 68.5296 83.63C68.2536 83.422 67.9036 83.318 67.4796 83.318C67.0396 83.318 66.6756 83.426 66.3876 83.642C66.1036 83.858 65.8916 84.15 65.7516 84.518C65.6156 84.886 65.5476 85.298 65.5476 85.754C65.5476 86.214 65.6176 86.63 65.7576 87.002C65.8976 87.37 66.1076 87.662 66.3876 87.878C66.6716 88.094 67.0256 88.202 67.4496 88.202ZM69.3456 89V84.23H69.2256V80.36H70.2996V89H69.3456ZM75.283 91.88L76.537 88.472L76.555 89.48L73.723 82.52H74.845L77.065 88.118H76.681L78.763 82.52H79.849L76.321 91.88H75.283ZM83.3656 89.18C82.7216 89.18 82.1656 89.034 81.6976 88.742C81.2336 88.45 80.8756 88.046 80.6236 87.53C80.3716 87.014 80.2456 86.422 80.2456 85.754C80.2456 85.074 80.3736 84.478 80.6296 83.966C80.8856 83.454 81.2476 83.056 81.7156 82.772C82.1836 82.484 82.7336 82.34 83.3656 82.34C84.0136 82.34 84.5716 82.486 85.0396 82.778C85.5076 83.066 85.8656 83.468 86.1136 83.984C86.3656 84.496 86.4916 85.086 86.4916 85.754C86.4916 86.43 86.3656 87.026 86.1136 87.542C85.8616 88.054 85.5016 88.456 85.0336 88.748C84.5656 89.036 84.0096 89.18 83.3656 89.18ZM83.3656 88.166C84.0376 88.166 84.5376 87.942 84.8656 87.494C85.1936 87.046 85.3576 86.466 85.3576 85.754C85.3576 85.022 85.1916 84.44 84.8596 84.008C84.5276 83.572 84.0296 83.354 83.3656 83.354C82.9136 83.354 82.5416 83.456 82.2496 83.66C81.9576 83.864 81.7396 84.146 81.5956 84.506C81.4516 84.866 81.3796 85.282 81.3796 85.754C81.3796 86.482 81.5476 87.066 81.8836 87.506C82.2196 87.946 82.7136 88.166 83.3656 88.166ZM90.2727 89.168C89.8567 89.168 89.4987 89.102 89.1987 88.97C88.9027 88.838 88.6567 88.662 88.4607 88.442C88.2647 88.222 88.1107 87.978 87.9987 87.71C87.8867 87.442 87.8067 87.168 87.7587 86.888C87.7147 86.608 87.6927 86.346 87.6927 86.102V82.52H88.7727V85.766C88.7727 86.07 88.8007 86.364 88.8567 86.648C88.9127 86.932 89.0067 87.188 89.1387 87.416C89.2747 87.644 89.4547 87.824 89.6787 87.956C89.9067 88.088 90.1907 88.154 90.5307 88.154C90.7987 88.154 91.0427 88.108 91.2627 88.016C91.4827 87.924 91.6707 87.788 91.8267 87.608C91.9827 87.424 92.1027 87.192 92.1867 86.912C92.2707 86.632 92.3127 86.306 92.3127 85.934L93.0147 86.15C93.0147 86.774 92.9007 87.312 92.6727 87.764C92.4487 88.216 92.1307 88.564 91.7187 88.808C91.3107 89.048 90.8287 89.168 90.2727 89.168ZM92.4327 89V87.266H92.3127V82.52H93.3867V89H92.4327ZM95.0666 89V82.52H96.0206V84.086L95.8646 83.882C95.9406 83.682 96.0386 83.498 96.1586 83.33C96.2826 83.162 96.4206 83.024 96.5726 82.916C96.7406 82.78 96.9306 82.676 97.1426 82.604C97.3546 82.532 97.5706 82.49 97.7906 82.478C98.0106 82.462 98.2166 82.476 98.4086 82.52V83.522C98.1846 83.462 97.9386 83.446 97.6706 83.474C97.4026 83.502 97.1546 83.6 96.9266 83.768C96.7186 83.916 96.5566 84.096 96.4406 84.308C96.3286 84.52 96.2506 84.75 96.2066 84.998C96.1626 85.242 96.1406 85.492 96.1406 85.748V89H95.0666ZM37.9547 105.18C37.3467 105.18 36.8347 105.03 36.4187 104.73C36.0027 104.426 35.6867 104.016 35.4707 103.5C35.2587 102.98 35.1527 102.398 35.1527 101.754C35.1527 101.102 35.2587 100.518 35.4707 100.002C35.6867 99.486 36.0027 99.08 36.4187 98.784C36.8387 98.488 37.3527 98.34 37.9607 98.34C38.5607 98.34 39.0767 98.49 39.5087 98.79C39.9447 99.086 40.2787 99.492 40.5107 100.008C40.7427 100.524 40.8587 101.106 40.8587 101.754C40.8587 102.402 40.7427 102.984 40.5107 103.5C40.2787 104.016 39.9447 104.426 39.5087 104.73C39.0767 105.03 38.5587 105.18 37.9547 105.18ZM34.9727 107.88V98.52H35.9267V103.29H36.0467V107.88H34.9727ZM37.8227 104.202C38.2507 104.202 38.6047 104.094 38.8847 103.878C39.1647 103.662 39.3747 103.37 39.5147 103.002C39.6547 102.63 39.7247 102.214 39.7247 101.754C39.7247 101.298 39.6547 100.886 39.5147 100.518C39.3787 100.15 39.1667 99.858 38.8787 99.642C38.5947 99.426 38.2327 99.318 37.7927 99.318C37.3727 99.318 37.0247 99.422 36.7487 99.63C36.4727 99.834 36.2667 100.12 36.1307 100.488C35.9947 100.852 35.9267 101.274 35.9267 101.754C35.9267 102.226 35.9927 102.648 36.1247 103.02C36.2607 103.388 36.4687 103.678 36.7487 103.89C37.0287 104.098 37.3867 104.202 37.8227 104.202ZM46.788 105V101.754C46.788 101.446 46.76 101.15 46.704 100.866C46.652 100.582 46.558 100.328 46.422 100.104C46.29 99.876 46.11 99.696 45.882 99.564C45.658 99.432 45.374 99.366 45.03 99.366C44.762 99.366 44.518 99.412 44.298 99.504C44.082 99.592 43.896 99.728 43.74 99.912C43.584 100.096 43.462 100.328 43.374 100.608C43.29 100.884 43.248 101.21 43.248 101.586L42.546 101.37C42.546 100.742 42.658 100.204 42.882 99.756C43.11 99.304 43.428 98.958 43.836 98.718C44.248 98.474 44.732 98.352 45.288 98.352C45.708 98.352 46.066 98.418 46.362 98.55C46.658 98.682 46.904 98.858 47.1 99.078C47.296 99.294 47.45 99.538 47.562 99.81C47.674 100.078 47.752 100.352 47.796 100.632C47.844 100.908 47.868 101.17 47.868 101.418V105H46.788ZM42.168 105V96.36H43.128V101.13H43.248V105H42.168ZM52.1879 105.18C51.5439 105.18 50.9879 105.034 50.5199 104.742C50.0559 104.45 49.6979 104.046 49.4459 103.53C49.1939 103.014 49.0679 102.422 49.0679 101.754C49.0679 101.074 49.1959 100.478 49.4519 99.966C49.7079 99.454 50.0699 99.056 50.5379 98.772C51.0059 98.484 51.5559 98.34 52.1879 98.34C52.8359 98.34 53.3939 98.486 53.8619 98.778C54.3299 99.066 54.6879 99.468 54.9359 99.984C55.1879 100.496 55.3139 101.086 55.3139 101.754C55.3139 102.43 55.1879 103.026 54.9359 103.542C54.6839 104.054 54.3239 104.456 53.8559 104.748C53.3879 105.036 52.8319 105.18 52.1879 105.18ZM52.1879 104.166C52.8599 104.166 53.3599 103.942 53.6879 103.494C54.0159 103.046 54.1799 102.466 54.1799 101.754C54.1799 101.022 54.0139 100.44 53.6819 100.008C53.3499 99.572 52.8519 99.354 52.1879 99.354C51.7359 99.354 51.3639 99.456 51.0719 99.66C50.7799 99.864 50.5619 100.146 50.4179 100.506C50.2739 100.866 50.2019 101.282 50.2019 101.754C50.2019 102.482 50.3699 103.066 50.7059 103.506C51.0419 103.946 51.5359 104.166 52.1879 104.166ZM60.2529 105C59.8689 105.076 59.4889 105.106 59.1129 105.09C58.7409 105.078 58.4089 105.004 58.1169 104.868C57.8249 104.728 57.6029 104.512 57.4509 104.22C57.3229 103.964 57.2529 103.706 57.2409 103.446C57.2329 103.182 57.2289 102.884 57.2289 102.552V96.72H58.2969V102.504C58.2969 102.768 58.2989 102.994 58.3029 103.182C58.3109 103.37 58.3529 103.532 58.4289 103.668C58.5729 103.924 58.8009 104.074 59.1129 104.118C59.4289 104.162 59.8089 104.15 60.2529 104.082V105ZM55.9149 99.402V98.52H60.2529V99.402H55.9149ZM64.059 105.18C63.415 105.18 62.859 105.034 62.391 104.742C61.927 104.45 61.569 104.046 61.317 103.53C61.065 103.014 60.939 102.422 60.939 101.754C60.939 101.074 61.067 100.478 61.323 99.966C61.579 99.454 61.941 99.056 62.409 98.772C62.877 98.484 63.427 98.34 64.059 98.34C64.707 98.34 65.265 98.486 65.733 98.778C66.201 99.066 66.559 99.468 66.807 99.984C67.059 100.496 67.185 101.086 67.185 101.754C67.185 102.43 67.059 103.026 66.807 103.542C66.555 104.054 66.195 104.456 65.727 104.748C65.259 105.036 64.703 105.18 64.059 105.18ZM64.059 104.166C64.731 104.166 65.231 103.942 65.559 103.494C65.887 103.046 66.051 102.466 66.051 101.754C66.051 101.022 65.885 100.44 65.553 100.008C65.221 99.572 64.723 99.354 64.059 99.354C63.607 99.354 63.235 99.456 62.943 99.66C62.651 99.864 62.433 100.146 62.289 100.506C62.145 100.866 62.073 101.282 62.073 101.754C62.073 102.482 62.241 103.066 62.577 103.506C62.913 103.946 63.407 104.166 64.059 104.166ZM75.5224 105V101.754C75.5224 101.446 75.4944 101.15 75.4384 100.866C75.3864 100.582 75.2924 100.328 75.1564 100.104C75.0244 99.876 74.8444 99.696 74.6164 99.564C74.3924 99.432 74.1084 99.366 73.7644 99.366C73.4964 99.366 73.2524 99.412 73.0324 99.504C72.8164 99.592 72.6304 99.728 72.4744 99.912C72.3184 100.096 72.1964 100.328 72.1084 100.608C72.0244 100.884 71.9824 101.21 71.9824 101.586L71.2804 101.37C71.2804 100.742 71.3924 100.204 71.6164 99.756C71.8444 99.304 72.1624 98.958 72.5704 98.718C72.9824 98.474 73.4664 98.352 74.0224 98.352C74.4424 98.352 74.8004 98.418 75.0964 98.55C75.3924 98.682 75.6384 98.858 75.8344 99.078C76.0304 99.294 76.1844 99.538 76.2964 99.81C76.4084 100.078 76.4864 100.352 76.5304 100.632C76.5784 100.908 76.6024 101.17 76.6024 101.418V105H75.5224ZM70.9024 105V96.36H71.8624V101.13H71.9824V105H70.9024ZM80.9703 105.18C80.3343 105.18 79.7783 105.04 79.3023 104.76C78.8303 104.476 78.4623 104.082 78.1983 103.578C77.9343 103.07 77.8023 102.478 77.8023 101.802C77.8023 101.094 77.9323 100.482 78.1923 99.966C78.4523 99.446 78.8143 99.046 79.2783 98.766C79.7463 98.482 80.2943 98.34 80.9223 98.34C81.5743 98.34 82.1283 98.49 82.5843 98.79C83.0443 99.09 83.3883 99.518 83.6163 100.074C83.8483 100.63 83.9483 101.292 83.9163 102.06H82.8363V101.676C82.8243 100.88 82.6623 100.286 82.3503 99.894C82.0383 99.498 81.5743 99.3 80.9583 99.3C80.2983 99.3 79.7963 99.512 79.4523 99.936C79.1083 100.36 78.9363 100.968 78.9363 101.76C78.9363 102.524 79.1083 103.116 79.4523 103.536C79.7963 103.956 80.2863 104.166 80.9223 104.166C81.3503 104.166 81.7223 104.068 82.0383 103.872C82.3543 103.676 82.6023 103.394 82.7823 103.026L83.8083 103.38C83.5563 103.952 83.1763 104.396 82.6683 104.712C82.1643 105.024 81.5983 105.18 80.9703 105.18ZM78.5763 102.06V101.202H83.3643V102.06H78.5763ZM85.2521 105V98.52H86.2061V100.086L86.0501 99.882C86.1261 99.682 86.2241 99.498 86.3441 99.33C86.4681 99.162 86.6061 99.024 86.7581 98.916C86.9261 98.78 87.1161 98.676 87.3281 98.604C87.5401 98.532 87.7561 98.49 87.9761 98.478C88.1961 98.462 88.4021 98.476 88.5941 98.52V99.522C88.3701 99.462 88.1241 99.446 87.8561 99.474C87.5881 99.502 87.3401 99.6 87.1121 99.768C86.9041 99.916 86.7421 100.096 86.6261 100.308C86.5141 100.52 86.4361 100.75 86.3921 100.998C86.3481 101.242 86.3261 101.492 86.3261 101.748V105H85.2521ZM92.4195 105.18C91.7835 105.18 91.2275 105.04 90.7515 104.76C90.2795 104.476 89.9115 104.082 89.6475 103.578C89.3835 103.07 89.2515 102.478 89.2515 101.802C89.2515 101.094 89.3815 100.482 89.6415 99.966C89.9015 99.446 90.2635 99.046 90.7275 98.766C91.1955 98.482 91.7435 98.34 92.3715 98.34C93.0235 98.34 93.5775 98.49 94.0335 98.79C94.4935 99.09 94.8375 99.518 95.0655 100.074C95.2975 100.63 95.3975 101.292 95.3655 102.06H94.2855V101.676C94.2735 100.88 94.1115 100.286 93.7995 99.894C93.4875 99.498 93.0235 99.3 92.4075 99.3C91.7475 99.3 91.2455 99.512 90.9015 99.936C90.5575 100.36 90.3855 100.968 90.3855 101.76C90.3855 102.524 90.5575 103.116 90.9015 103.536C91.2455 103.956 91.7355 104.166 92.3715 104.166C92.7995 104.166 93.1715 104.068 93.4875 103.872C93.8035 103.676 94.0515 103.394 94.2315 103.026L95.2575 103.38C95.0055 103.952 94.6255 104.396 94.1175 104.712C93.6135 105.024 93.0475 105.18 92.4195 105.18ZM90.0255 102.06V101.202H94.8135V102.06H90.0255Z" fill="#4C535F"/>
<path fill-rule="evenodd" clip-rule="evenodd" d="M56.9999 32.7584C57.74 32.2639 58.61 32 59.5 32C60.0714 32 60.5346 32.4632 60.5346 33.0346C60.5346 33.6061 60.0714 34.0693 59.5 34.0693C59.0193 34.0693 58.5493 34.2118 58.1496 34.4789C57.7498 34.746 57.4383 35.1256 57.2543 35.5698C57.0703 36.014 57.0222 36.5027 57.116 36.9742C57.2098 37.4457 57.4413 37.8788 57.7812 38.2188C58.1212 38.5587 58.5543 38.7902 59.0258 38.884C59.4973 38.9778 59.986 38.9297 60.4302 38.7457C60.8744 38.5617 61.254 38.2502 61.5211 37.8504C61.7882 37.4507 61.9307 36.9807 61.9307 36.5C61.9307 35.9286 62.3939 35.4654 62.9654 35.4654C63.5368 35.4654 64 35.9286 64 36.5C64 37.39 63.7361 38.26 63.2416 39.0001C62.7471 39.7401 62.0443 40.3169 61.2221 40.6575C60.3998 40.998 59.495 41.0872 58.6221 40.9135C57.7492 40.7399 56.9474 40.3113 56.318 39.682C55.6887 39.0526 55.2601 38.2508 55.0865 37.3779C54.9128 36.505 55.0019 35.6002 55.3425 34.7779C55.6831 33.9557 56.2599 33.2529 56.9999 32.7584Z" fill="#8D98AA"/>
<path fill-rule="evenodd" clip-rule="evenodd" d="M81.9802 38C82.5434 38 83 38.4661 83 39.041V47.7574C83 52.2164 82.1375 55.6085 79.9439 57.8604C77.7489 60.1136 74.4407 61 70.094 61H59.906C55.5606 61 52.2526 60.114 50.0572 57.861C47.8632 55.6094 47 52.2173 47 47.7574V44.2528C47 43.6779 47.4566 43.2118 48.0198 43.2118C48.5829 43.2118 49.0395 43.6779 49.0395 44.2528V47.7574C49.0395 52.014 49.8759 54.7227 51.5032 56.3928C53.1292 58.0615 55.7643 58.9181 59.906 58.9181H70.094C74.2371 58.9181 76.8721 58.0611 78.4977 56.3923C80.1248 54.7221 80.9605 52.0134 80.9605 47.7574V39.041C80.9605 38.4661 81.4171 38 81.9802 38Z" fill="#8D98AA"/>
<path fill-rule="evenodd" clip-rule="evenodd" d="M50.0997 28.0753C52.3242 25.8682 55.6763 25 60.0827 25H66.9716C67.5396 25 68 25.4568 68 26.0203C68 26.5838 67.5396 27.0406 66.9716 27.0406H60.0827C55.8792 27.0406 53.2042 27.8811 51.5541 29.5182C49.9039 31.1554 49.0568 33.8094 49.0568 37.9797C49.0568 38.5432 48.5964 39 48.0284 39C47.4604 39 47 38.5432 47 37.9797C47 33.608 47.8751 30.2823 50.0997 28.0753Z" fill="#8D98AA"/>
<path fill-rule="evenodd" clip-rule="evenodd" d="M70 31C70 30.4477 70.4792 30 71.0704 30H80.9296C81.5208 30 82 30.4477 82 31C82 31.5523 81.5208 32 80.9296 32H71.0704C70.4792 32 70 31.5523 70 31Z" fill="#8D98AA"/>
<path fill-rule="evenodd" clip-rule="evenodd" d="M76 25C76.5523 25 77 25.4792 77 26.0704V35.9296C77 36.5208 76.5523 37 76 37C75.4477 37 75 36.5208 75 35.9296V26.0704C75 25.4792 75.4477 25 76 25Z" fill="#8D98AA"/>
<path fill-rule="evenodd" clip-rule="evenodd" d="M75.0496 44.675L67.9723 50.8014L67.9535 50.8173C67.0931 51.5267 66.0135 51.9145 64.8993 51.9145C63.7851 51.9145 62.7055 51.5267 61.8451 50.8173C61.8358 50.8096 61.8267 50.8018 61.8177 50.7939L61.2713 50.3101C60.8139 49.941 60.2519 49.7253 59.6651 49.694C59.0746 49.6624 58.4894 49.8191 57.9934 50.1414L49.5972 55.8241C49.1286 56.1413 48.492 56.0177 48.1755 55.5481C47.859 55.0784 47.9823 54.4405 48.451 54.1233L56.8681 48.4264C57.7295 47.8634 58.7473 47.5897 59.7741 47.6445C60.801 47.6994 61.7839 48.0802 62.5806 48.7318C62.5909 48.7402 62.6011 48.7489 62.6111 48.7578L63.1591 49.2429C63.6508 49.6434 64.2653 49.8622 64.8993 49.8622C65.5351 49.8622 66.1512 49.6422 66.6436 49.2396L73.7209 43.1131L73.7397 43.0972C74.6002 42.3878 75.6797 42 76.7939 42C77.9081 42 78.9877 42.3878 79.8481 43.0972L79.867 43.1132L82.6454 45.5185C83.0734 45.889 83.1206 46.537 82.7509 46.9659C82.3812 47.3947 81.7345 47.4421 81.3066 47.0716L78.5382 44.6749C78.0458 44.2723 77.4297 44.0523 76.7939 44.0523C76.1582 44.0523 75.5421 44.2723 75.0496 44.675Z" fill="#8D98AA"/>
</svg>
