<svg width="28" height="28" viewBox="0 0 28 28" fill="none" xmlns="http://www.w3.org/2000/svg">
<path fill-rule="evenodd" clip-rule="evenodd" d="M14 0C10.287 0 6.72601 1.475 4.1005 4.1005C1.475 6.72601 0 10.287 0 14C0 17.713 1.475 21.274 4.1005 23.8995C6.72601 26.525 10.287 28 14 28C17.713 28 21.274 26.525 23.8995 23.8995C26.525 21.274 28 17.713 28 14C28 10.287 26.525 6.72601 23.8995 4.1005C21.274 1.475 17.713 0 14 0ZM13 4V18H15V4H13ZM14 20C13.803 20 13.608 20.0388 13.426 20.1142C13.244 20.1896 13.0786 20.3001 12.9393 20.4393C12.8001 20.5786 12.6896 20.744 12.6142 20.926C12.5388 21.108 12.5 21.303 12.5 21.5C12.5 21.697 12.5388 21.892 12.6142 22.074C12.6896 22.256 12.8001 22.4214 12.9393 22.5607C13.0786 22.6999 13.244 22.8104 13.426 22.8858C13.608 22.9612 13.803 23 14 23C14.3978 23 14.7794 22.842 15.0607 22.5607C15.342 22.2794 15.5 21.8978 15.5 21.5C15.5 21.1022 15.342 20.7206 15.0607 20.4393C14.7794 20.158 14.3978 20 14 20Z" fill="#EC1A1A"/>
</svg>
