<svg width="16" height="16" viewBox="0 0 16 16" fill="none" xmlns="http://www.w3.org/2000/svg">
<path d="M7.8002 0.849609C6.34651 0.849609 4.92546 1.28068 3.71676 2.08831C2.50806 2.89594 1.56599 4.04385 1.00968 5.38689C0.45338 6.72992 0.307825 8.20776 0.591427 9.63352C0.875028 11.0593 1.57505 12.3689 2.60296 13.3968C3.63088 14.4248 4.94052 15.1248 6.36628 15.4084C7.79205 15.692 9.26989 15.5464 10.6129 14.9901C11.956 14.4338 13.1039 13.4918 13.9115 12.283C14.7191 11.0743 15.1502 9.6533 15.1502 8.19961C15.148 6.25095 14.3729 4.38274 12.995 3.00483C11.6171 1.62692 9.74886 0.851833 7.8002 0.849609ZM7.8002 14.4996C6.12933 14.4996 4.5269 13.8359 3.34543 12.6544C2.16395 11.4729 1.5002 9.87047 1.5002 8.19961C1.5002 6.52875 2.16395 4.92632 3.34543 3.74484C4.5269 2.56336 6.12933 1.89961 7.8002 1.89961V8.19961L12.2527 12.6521C11.6689 13.2382 10.9749 13.7031 10.2108 14.0202C9.44671 14.3372 8.62748 14.5002 7.8002 14.4996Z" fill="#26B893"/>
</svg>
